DBRep_DrawableShape

CASCADE Topology V1, (c) Matra-Datavision
Locations 0
Curve2ds 0
Curves 2
7 0 1  3 9 8  -16.6666666666667 3066.6666666666702 0  -566.66666666666697 2800 0  -2100 1600 0  300 -1400 0  5500 -1000 0  5200 2900 0  1500 1500 0  1200 3200 0  533.33333333333303 3333.3333333333298 0 
 0 3 379.026774298833 1 758.05354859766703 1 1137.0803228965001 1 1516.10709719533 1 1895.1338714941701 1 2274.1606457930002 1 2653.1874200918301 3
7 0 1  3 8 7  316.66666666666697 1366.6666666666699 0  266.66666666666697 1033.3333333333301 0  400 100 0  2100 -300 0  3700 700 0  2700 1200 0  700 2100 0  366.66666666666697 1700 0 
 0 3 188.915056911536 1 377.830113823072 1 566.745170734608 1 755.66022764614399 1 944.57528455768102 1 1133.4903414692201 3
Polygon3D 0
PolygonOnTriangulations 0
Surfaces 1
1 -1400.6666666666702 -1312.6666666666699 0 0 0 1 1 0 -0 -0 1 0 
Triangulations 0

TShapes 9
Ve
1e-07
-16.6666666666667 3066.66666666667 0
0 0

0101101
*
Ed
 1e-07 1 1 0
1  1 0 0 2653.18742009183
0

0101100
+9 0 -9 0 *
Wi

0101100
+8 0 *
Ve
1e-07
316.666666666667 1366.66666666667 0
0 0

0101101
*
Ed
 1e-07 1 1 0
1  2 0 0 1133.49034146922
0

0101100
+6 0 -6 0 *
Wi

0101100
-5 0 *
Fa
0  1e-07 1 0

0101000
+7 0 +4 0 *
Sh

0101000
+3 0 *
Co

1100000
+2 0 *

+1 0 