DBRep_DrawableShape

CASCADE Topology V1, (c) Matra-Datavision
Locations 0
Curve2ds 0
Curves 1
7 0 1  3 9 8  -16.6666666666667 3066.6666666666702 0  -566.66666666666697 2800 0  -2100 1600 0  300 -1400 0  5500 -1000 0  5200 2900 0  1500 1500 0  1200 3200 0  533.33333333333303 3333.3333333333298 0 
 0 3 379.026774298833 1 758.05354859766703 1 1137.0803228965001 1 1516.10709719533 1 1895.1338714941701 1 2274.1606457930002 1 2653.1874200918301 3
Polygon3D 0
PolygonOnTriangulations 0
Surfaces 1
1 -1400.6666666666702 -1312.6666666666699 0 0 0 1 1 0 -0 -0 1 0 
Triangulations 0

TShapes 6
Ve
1e-07
-16.6666666666667 3066.66666666667 0
0 0

0101101
*
Ed
 1e-07 1 1 0
1  1 0 0 2653.18742009183
0

0101100
+6 0 -6 0 *
Wi

0101100
+5 0 *
Fa
0  1e-07 1 0

0101000
+4 0 *
Sh

0101000
+3 0 *
Co

1100000
+2 0 *

+1 0 